<?xml version="1.0" encoding="UTF-8"?>
<svg width="560px" height="831px" viewBox="0 0 560 831" version="1.1" xmlns="http://www.w3.org/2000/svg" xmlns:xlink="http://www.w3.org/1999/xlink">
    <!-- Generator: Sketch 51.3 (57544) - http://www.bohemiancoding.com/sketch -->
    <title>Group 5</title>
    <desc>Created with Sketch.</desc>
    <defs></defs>
    <g id="Page-1" stroke="none" stroke-width="1" fill="none" fill-rule="evenodd">
        <g id="Group-5">
            <path d="M227.081987,507 L332.896299,507 C336.625769,507 339.86048,509.576982 340.693959,513.212124 L377.83792,675.212124 C378.825336,679.518652 376.134665,683.810243 371.828136,684.79766 C371.241683,684.932124 370.641931,685 370.04026,685 L192,685 C187.581722,685 184,681.418278 184,677 C184,676.430761 184.060756,675.863147 184.181235,675.306804 L219.263222,513.306804 C220.060251,509.62632 223.316192,507 227.081987,507 Z" id="Rectangle-2" fill="#4A4A4A" transform="translate(281.021011, 596.000000) scale(1, -1) translate(-281.021011, -596.000000) "></path>
            <g id="Balloon-strings" transform="translate(223.000000, 674.000000)" stroke="#4A4A4A" stroke-linecap="square" stroke-width="5">
                <path d="M0.5,5.5 L31.5,79.5" id="Line-2"></path>
                <path d="M12.5,0.5 L43.5,74.5" id="Line-2"></path>
            </g>
            <g id="Balloon-strings" transform="translate(315.000000, 714.000000) scale(-1, 1) translate(-315.000000, -714.000000) translate(293.000000, 674.000000)" stroke="#4A4A4A" stroke-linecap="square" stroke-width="5">
                <path d="M0.5,5.5 L31.5,79.5" id="Line-2"></path>
                <path d="M12.5,0.5 L43.5,74.5" id="Line-2"></path>
            </g>
            <path d="M280,633.609375 C434.63973,633.609375 560,395.832611 560,255 C560,114.167389 434.63973,0 280,0 C125.36027,0 0,114.167389 0,255 C0,395.832611 125.36027,633.609375 280,633.609375 Z" id="Oval-4" fill="#E79C89"></path>
            <path d="M281,634.609375 C424.814949,634.609375 467,396.832611 467,256 C467,115.167389 424.814949,1 281,1 C137.185051,1 95,115.167389 95,256 C95,396.832611 137.185051,634.609375 281,634.609375 Z" id="Oval-4" fill="#ECB2A0"></path>
            <path d="M281.5,633.609375 C343.742491,633.609375 362,395.832611 362,255 C362,114.167389 343.742491,0 281.5,0 C219.257509,0 201,114.167389 201,255 C201,395.832611 219.257509,633.609375 281.5,633.609375 Z" id="Oval-4" fill="#EEC2B5"></path>
            <rect id="Rectangle-3" fill="#6C4828" x="218" y="751" width="127" height="80" rx="8"></rect>
            <path d="M214.44702,751.208333 L349,751.208333" id="Line" stroke="#D4C71F" stroke-width="8" stroke-linecap="square"></path>
        </g>
    </g>
</svg>