<?xml version="1.0" encoding="UTF-8"?>
<svg width="568px" height="824px" viewBox="0 0 568 824" version="1.1" xmlns="http://www.w3.org/2000/svg" xmlns:xlink="http://www.w3.org/1999/xlink">
    <!-- Generator: Sketch 51.3 (57544) - http://www.bohemiancoding.com/sketch -->
    <title>Group 4</title>
    <desc>Created with Sketch.</desc>
    <defs>
        <path d="M280,633.40421 C466.666667,474.886367 560,348.683242 560,254.794835 C560,113.962223 434.63973,316.599522 280,316.599522 C125.36027,316.599522 0,113.962223 0,254.794835 C0,348.683242 93.3333333,474.886367 280,633.40421 Z" id="path-1"></path>
        <filter x="-1.2%" y="-1.2%" width="102.5%" height="103.3%" filterUnits="objectBoundingBox" id="filter-2">
            <feOffset dx="0" dy="2" in="SourceAlpha" result="shadowOffsetOuter1"></feOffset>
            <feGaussianBlur stdDeviation="2" in="shadowOffsetOuter1" result="shadowBlurOuter1"></feGaussianBlur>
            <feColorMatrix values="0 0 0 0 0   0 0 0 0 0   0 0 0 0 0  0 0 0 0.5 0" type="matrix" in="shadowBlurOuter1"></feColorMatrix>
        </filter>
    </defs>
    <g id="Page-1" stroke="none" stroke-width="1" fill="none" fill-rule="evenodd">
        <g id="Group-4" transform="translate(4.000000, 0.000000)">
            <path d="M226.081987,500 L331.896299,500 C335.625769,500 338.86048,502.576982 339.693959,506.212124 L376.83792,668.212124 C377.825336,672.518652 375.134665,676.810243 370.828136,677.79766 C370.241683,677.932124 369.641931,678 369.04026,678 L191,678 C186.581722,678 183,674.418278 183,670 C183,669.430761 183.060756,668.863147 183.181235,668.306804 L218.263222,506.306804 C219.060251,502.62632 222.316192,500 226.081987,500 Z" id="Rectangle-2" fill="#4A4A4A" transform="translate(280.021011, 589.000000) scale(1, -1) translate(-280.021011, -589.000000) "></path>
            <g id="Balloon-strings" transform="translate(222.000000, 667.000000)" stroke="#4A4A4A" stroke-linecap="square" stroke-width="5">
                <path d="M0.5,5.5 L31.5,79.5" id="Line-2"></path>
                <path d="M12.5,0.5 L43.5,74.5" id="Line-2"></path>
            </g>
            <g id="Balloon-strings" transform="translate(314.000000, 707.000000) scale(-1, 1) translate(-314.000000, -707.000000) translate(292.000000, 667.000000)" stroke="#4A4A4A" stroke-linecap="square" stroke-width="5">
                <path d="M0.5,5.5 L31.5,79.5" id="Line-2"></path>
                <path d="M12.5,0.5 L43.5,74.5" id="Line-2"></path>
            </g>
            <path d="M280,633.609375 C434.63973,633.609375 560,395.832611 560,255 C560,114.167389 434.63973,0 280,0 C125.36027,0 0,114.167389 0,255 C0,395.832611 125.36027,633.609375 280,633.609375 Z" id="Oval-4" fill="#6F79B6"></path>
            <g id="Oval-4">
                <use fill="black" fill-opacity="1" filter="url(#filter-2)" xlink:href="#path-1"></use>
                <use fill="#99A1C8" fill-rule="evenodd" xlink:href="#path-1"></use>
            </g>
            <path d="M280,633.609375 C434.63973,633.609375 560,395.832611 560,255 C560,114.167389 434.63973,430.765625 280,430.765625 C125.36027,430.765625 0,114.167389 0,255 C0,395.832611 125.36027,633.609375 280,633.609375 Z" id="Oval-4" fill="#BED2B7"></path>
            <rect id="Rectangle-3" fill="#6C4828" x="217" y="744" width="127" height="80" rx="8"></rect>
            <path d="M213.44702,744.208333 L348,744.208333" id="Line" stroke="#D4C71F" stroke-width="8" stroke-linecap="square"></path>
            <polygon id="Star" fill="#EBAF41" points="282 173 243.206173 192.777088 250.615135 150.888544 219.23027 121.222912 262.603087 115.111456 282 77 301.396913 115.111456 344.76973 121.222912 313.384865 150.888544 320.793827 192.777088"></polygon>
        </g>
    </g>
</svg>