<?xml version="1.0" encoding="UTF-8"?>
<svg width="95px" height="198px" viewBox="0 0 95 198" version="1.1" xmlns="http://www.w3.org/2000/svg" xmlns:xlink="http://www.w3.org/1999/xlink">
    <!-- Generator: Sketch 51.3 (57544) - http://www.bohemiancoding.com/sketch -->
    <title>Group</title>
    <desc>Created with Sketch.</desc>
    <defs></defs>
    <g id="Page-1" stroke="none" stroke-width="1" fill="none" fill-rule="evenodd">
        <g id="Artboard-2" transform="translate(-1880.000000, -5261.000000)">
            <g id="Group" transform="translate(1880.000000, 5261.000000)">
                <path d="M13.7219899,0.00156519031 L83.0893622,0.00156519031 C86.8342281,0.065784189 89.6616543,0.894589022 91.5716408,2.48797969 C93.4816273,4.08137036 94.6244137,6.56468304 95,9.93791774 L95,186.715289 C94.8334516,190.415447 93.9876471,193.171254 92.4625865,194.98271 C90.937526,196.794166 88.6164737,197.79993 85.4994298,198 L10.0071026,198 C6.95540767,197.604701 4.56466366,196.598938 2.83487055,194.98271 C1.10507744,193.366482 0.160120591,191.255543 0,188.64989 L0,9.93791774 C0.560964037,6.67154765 2.01546266,4.18823496 4.36349586,2.48797969 C6.71152906,0.787724417 9.83102708,-0.0410804157 13.7219899,0.00156519031 Z M7.6289064,26.6805676 L7.6289064,167.706425 L87.7324236,167.706425 L87.7324236,26.6805676 L7.6289064,26.6805676 Z" id="Combined-Shape" fill="#3C3C3C"></path>
                <ellipse id="Oval-6" fill="#EAEAEA" cx="47.660473" cy="182.756888" rx="7.54222973" ry="7.54132901"></ellipse>
                <ellipse id="Oval-6" fill="#EAEAEA" cx="34.3412162" cy="13.1572123" rx="1.92567568" ry="1.92544571"></ellipse>
                <rect id="Rectangle-6" fill="#EAEAEA" x="40.1182432" y="11.2317666" width="22.7871622" height="3.85089141" rx="1.92544571"></rect>
            </g>
        </g>
    </g>
</svg>